<svg width="24" height="24" viewBox="0 0 24 24" fill="none" xmlns="http://www.w3.org/2000/svg">
<path opacity="0.1" fill-rule="evenodd" clip-rule="evenodd" d="M0 12C0 5.37258 5.37258 0 12 0C18.6274 0 24 5.37258 24 12C24 18.6274 18.6274 24 12 24C5.37258 24 0 18.6274 0 12Z" fill="white"/>
<path fill-rule="evenodd" clip-rule="evenodd" d="M12.0002 5.60001C10.2621 5.60001 10.0439 5.60761 9.36125 5.63867C8.67991 5.66987 8.21484 5.77774 7.8079 5.93601C7.38696 6.09948 7.02989 6.31815 6.67415 6.67402C6.31815 7.02975 6.09948 7.38682 5.93548 7.80763C5.77681 8.2147 5.66881 8.6799 5.63814 9.36098C5.60761 10.0437 5.59961 10.2619 5.59961 12.0001C5.59961 13.7382 5.60734 13.9557 5.63828 14.6384C5.66961 15.3197 5.77748 15.7848 5.93561 16.1917C6.09921 16.6127 6.31788 16.9697 6.67375 17.3255C7.02936 17.6815 7.38643 17.9007 7.8071 18.0641C8.2143 18.2224 8.67951 18.3303 9.36072 18.3615C10.0434 18.3925 10.2614 18.4001 11.9994 18.4001C13.7377 18.4001 13.9552 18.3925 14.6378 18.3615C15.3192 18.3303 15.7848 18.2224 16.192 18.0641C16.6128 17.9007 16.9693 17.6815 17.3249 17.3255C17.6809 16.9697 17.8996 16.6127 18.0636 16.1918C18.2209 15.7848 18.3289 15.3196 18.3609 14.6385C18.3916 13.9558 18.3996 13.7382 18.3996 12.0001C18.3996 10.2619 18.3916 10.0438 18.3609 9.36111C18.3289 8.67977 18.2209 8.2147 18.0636 7.80776C17.8996 7.38682 17.6809 7.02975 17.3249 6.67402C16.9689 6.31801 16.6129 6.09934 16.1916 5.93601C15.7836 5.77774 15.3182 5.66987 14.6369 5.63867C13.9542 5.60761 13.7369 5.60001 11.9982 5.60001H12.0002ZM11.426 6.75333C11.5964 6.75307 11.7866 6.75333 12.0002 6.75333C13.709 6.75333 13.9115 6.75947 14.5863 6.79013C15.2103 6.81867 15.549 6.92294 15.7746 7.01054C16.0733 7.12654 16.2862 7.26521 16.5101 7.48921C16.7341 7.71321 16.8728 7.92655 16.989 8.22522C17.0766 8.45055 17.181 8.78922 17.2094 9.41323C17.2401 10.0879 17.2468 10.2906 17.2468 11.9986C17.2468 13.7066 17.2401 13.9093 17.2094 14.5839C17.1809 15.208 17.0766 15.5466 16.989 15.772C16.873 16.0706 16.7341 16.2833 16.5101 16.5072C16.2861 16.7312 16.0734 16.8698 15.7746 16.9858C15.5493 17.0738 15.2103 17.1778 14.5863 17.2064C13.9117 17.237 13.709 17.2437 12.0002 17.2437C10.2912 17.2437 10.0887 17.237 9.41402 17.2064C8.79002 17.1776 8.45134 17.0733 8.22561 16.9857C7.92694 16.8697 7.7136 16.731 7.4896 16.507C7.2656 16.283 7.12693 16.0702 7.01066 15.7714C6.92306 15.5461 6.81866 15.2074 6.79026 14.5834C6.75959 13.9087 6.75346 13.7061 6.75346 11.997C6.75346 10.2879 6.75959 10.0863 6.79026 9.41163C6.81879 8.78762 6.92306 8.44895 7.01066 8.22335C7.12666 7.92468 7.2656 7.71134 7.4896 7.48734C7.7136 7.26334 7.92694 7.12467 8.22561 7.0084C8.45121 6.9204 8.79002 6.8164 9.41402 6.78773C10.0044 6.76107 10.2332 6.75307 11.426 6.75173V6.75333ZM15.4165 7.81601C14.9925 7.81601 14.6485 8.15962 14.6485 8.58376C14.6485 9.00776 14.9925 9.35176 15.4165 9.35176C15.8405 9.35176 16.1845 9.00776 16.1845 8.58376C16.1845 8.15975 15.8405 7.81601 15.4165 7.81601ZM12.0002 8.71335C10.1851 8.71335 8.71352 10.185 8.71352 12.0001C8.71352 13.8151 10.1851 15.2861 12.0002 15.2861C13.8153 15.2861 15.2864 13.8151 15.2864 12.0001C15.2864 10.185 13.8153 8.71335 12.0002 8.71335ZM12.0002 9.8667C13.1783 9.8667 14.1336 10.8218 14.1336 12.0001C14.1336 13.1782 13.1783 14.1334 12.0002 14.1334C10.8219 14.1334 9.86684 13.1782 9.86684 12.0001C9.86684 10.8218 10.8219 9.8667 12.0002 9.8667Z" fill="white"/>
</svg>
